<svg xmlns="http://www.w3.org/2000/svg" xmlns:xlink="http://www.w3.org/1999/xlink" version="1.1" x="0px" y="0px" viewBox="0 0 100 100" enable-background="new 0 0 100 100" xml:space="preserve"><rect fill="none" width="100" height="100"></rect><g><path d="M88.533,43.237c0-4.39-3.822-7.949-8.538-7.949H65.139c2.925-5.152,3.455-13.068,3.538-16.688   c0.01-0.137,0.015-0.275,0.015-0.414v-0.747c0-0.007,0-0.015,0-0.022V16.58c0-3.371-2.732-6.104-6.104-6.104   c-2.796,0-5.152,1.88-5.875,4.444l0,0c-0.028,0.1-0.054,0.201-0.077,0.304c-0.326,1.19-1.774,5.711-6.063,10.418   c-6.354,5.924-15.363,9.646-15.363,9.646s-6.228,0.651-6.228,8.047v40.285c0,0-0.153,5.904,9.653,5.904h1.409h23.578h13.069   c4.39,0,7.949-3.559,7.949-7.947c0-2.639-1.286-4.977-3.265-6.424c1.979-1.445,3.265-3.783,3.265-6.422   c0-2.58-1.229-4.873-3.135-6.324c1.905-1.453,3.135-3.746,3.135-6.326c0-2.027-0.76-3.877-2.009-5.281   C86.058,49.765,88.533,46.77,88.533,43.237z" style="fill: #ffbc21;"></path><rect style="fill:#ffbc21;" x="11.467" y="34.187" width="14.985" height="55.336"></rect></g></svg>