<svg xmlns="http://www.w3.org/2000/svg" xmlns:xlink="http://www.w3.org/1999/xlink" version="1.1" x="0px" y="0px" viewBox="0 0 96 96" style="enable-background:new 0 0 96 96;" xml:space="preserve"><style type="text/css">
	.st0{fill:none;stroke:#000000;stroke-width:6;stroke-linecap:round;stroke-linejoin:round;stroke-miterlimit:10;}
	.st1{fill:none;stroke:#000000;stroke-width:6;stroke-miterlimit:10;}
	.st2{fill:none;stroke:#000000;stroke-width:6;stroke-linecap:round;stroke-miterlimit:10;}
</style><g><g><path d="M74.4,27.8L51.3,9.2l-0.4-0.3c-2-1.2-4.5-1.2-6.4,0l-23,18.9C19.9,29,19,30.8,19,32.7v48c0,4.4,3.6,8.3,8,8.3h42    c4.4,0,8-3.9,8-8.3v-48C77,30.7,76,28.9,74.4,27.8z M27,81V33.7l20.7-17.1L69,33.8L69,81H27z" style="fill: #fff"></path><path d="M48,32.7c-6.1,0-11,4.9-11,11s4.9,11,11,11s11-4.9,11-11S54.1,32.7,48,32.7z M48,46.7c-1.7,0-3-1.3-3-3s1.3-3,3-3    s3,1.3,3,3S49.7,46.7,48,46.7z" style="fill: #fff"></path></g></g></svg>