<svg xmlns="http://www.w3.org/2000/svg" xmlns:xlink="http://www.w3.org/1999/xlink" version="1.1" x="0px" y="0px" viewBox="0 0 29 29" style="enable-background:new 0 0 29 29;" xml:space="preserve"><style type="text/css">
	.st0{fill:none;stroke:#000000;stroke-width:2;stroke-miterlimit:10;}
	.st1{fill:none;stroke:#000000;stroke-width:2;stroke-linecap:round;stroke-linejoin:round;stroke-miterlimit:10;}
	.st2{fill:none;stroke:#000000;stroke-miterlimit:10;}
	.st3{fill:none;stroke:#000000;stroke-width:2;stroke-miterlimit:10;stroke-dasharray:1.7411,1.7411;}
	.st4{fill:none;stroke:#000000;stroke-width:2;stroke-linecap:round;stroke-linejoin:round;stroke-dasharray:2.0261,4.0522;}
</style><path  d="M15.397,4.687l2.579,5.225c0.146,0.295,0.427,0.5,0.753,0.547l5.766,0.838c0.82,0.119,1.148,1.127,0.554,1.706l-4.173,4.067  c-0.236,0.23-0.343,0.561-0.288,0.885l0.985,5.743c0.14,0.817-0.717,1.44-1.451,1.054l-5.158-2.712  c-0.291-0.153-0.639-0.153-0.931,0l-5.158,2.712c-0.734,0.386-1.591-0.237-1.451-1.054l0.985-5.743  c0.056-0.324-0.052-0.655-0.288-0.885l-4.173-4.067c-0.594-0.579-0.266-1.587,0.554-1.706l5.766-0.838  c0.326-0.047,0.607-0.252,0.753-0.547l2.579-5.225C13.97,3.944,15.03,3.944,15.397,4.687z" style="fill:#ffbc21;"></path></svg>