<svg xmlns="http://www.w3.org/2000/svg" xmlns:xlink="http://www.w3.org/1999/xlink" version="1.1" x="0px" y="0px" viewBox="0 0 512 512" enable-background="new 0 0 512 512" xml:space="preserve">
<linearGradient id="linear-gradient">
    <stop offset="0%" stop-color="#FF7F1E"/>
    <stop offset="100%" stop-color="#FFBB21"/>
  </linearGradient>
  <g><path style="fill:url(#linear-gradient)" d="M256,2c-61.1,0-115.5,41-131.4,100c-4.9,18.2,5,50.5,39.4,50.5c18.1,0,34.3-12.2,39.4-29.6c6.8-23.1,28.4-39.3,52.6-39.3   c31.9,0,49.1,20.4,53.9,45.1c2.7,23-10.8,47.6-31.5,57.4l-107.7,51c-31,14.7-51.1,46.4-51.1,80.8v151.4c0,22.5,18.3,40.8,40.8,40.8   h191.1c22.5,0,40.8-18.3,40.8-40.8V138.3C392.3,63.2,331.2,2,256,2z M364.1,469.2c0,6.9-5.6,12.5-12.5,12.5H160.4   c-6.9,0-12.5-5.6-12.5-12.5V317.9c0-23.5,13.7-45.2,35-55.3l107.7-51c56.7-28.1,47.4-87.3,47-88.6c-7.2-33.2-30.1-67.7-81.6-67.7   c-36.6,0-69.3,24.5-79.7,59.5c-1.6,5.4-6.8,9.4-12.3,9.4c-12.7,0-13.5-10.3-12.2-14.7c12.9-46.7,55.7-79.3,104.2-79.3   c59.6,0,108.1,48.5,108.1,108.1V469.2z"></path><path style="fill:url(#linear-gradient)" d="M256,291.8c-45.8,0-83,37.2-83,83c0,45.8,37.2,83,83,83c45.8,0,83-37.2,83-83C339,329,301.8,291.8,256,291.8z M256,429.6   c-30.2,0-54.8-24.6-54.8-54.8c0-30.2,24.6-54.8,54.8-54.8c30.2,0,54.8,24.6,54.8,54.8C310.8,405,286.2,429.6,256,429.6z"></path><path style="fill:url(#linear-gradient)" d="M274.2,360.7h-36.4c-7.8,0-14.1,6.3-14.1,14.1c0,7.8,6.3,14.1,14.1,14.1h36.4c7.8,0,14.1-6.3,14.1-14.1   C288.3,367,282,360.7,274.2,360.7z"></path></g></svg>