<svg xmlns="http://www.w3.org/2000/svg" xmlns:xlink="http://www.w3.org/1999/xlink" version="1.1" x="0px" y="0px" viewBox="0 0 100 100" style="enable-background:new 0 0 100 100;" xml:space="preserve">
<linearGradient id="linear-gradient">
    <stop offset="0%" stop-color="#FF7F1E"/>
    <stop offset="100%" stop-color="#FFBB21"/>
  </linearGradient>
  <path style="fill:url(#linear-gradient)"  d="M79.8,67.4l-16.4-34c-1.1-2.3-3.4-3.8-6-3.8c0,0,0,0,0,0c-2.6,0-4.9,1.5-6,3.8l-5.5,11.4l-1.3-2.7c-1.1-2.3-3.4-3.8-6-3.8  c-2.6,0-4.9,1.5-6,3.8L20.2,67.4c-0.3,0.6-0.3,1.4,0.1,1.9c0.4,0.6,1,0.9,1.7,0.9h14.5c0,0,0,0,0,0c0.1,0,0.1,0,0.2,0H78  c0.7,0,1.3-0.4,1.7-0.9C80.1,68.8,80.1,68.1,79.8,67.4z M54.9,35.2c0.5-1,1.4-1.5,2.4-1.5c1.1,0,2,0.6,2.4,1.5l5.7,11.9l-1.8,2.8  l-4.8-5.5c-0.4-0.4-0.9-0.7-1.4-0.7c-0.5,0-1.1,0.2-1.5,0.6l-4.4,4.3l-2.1-2.1L54.9,35.2z M35.5,66.3H25.2L36,43.9  c0.5-1,1.4-1.5,2.4-1.5c1.1,0,2,0.6,2.4,1.5l2.7,5.6L35.5,66.3z M39.9,66.3l7.7-15.9l2.5,2.5c0.8,0.8,2,0.8,2.8,0l4.4-4.2l5.2,5.9  c0.4,0.4,0.9,0.7,1.5,0.7c0,0,0.1,0,0.1,0c0.6,0,1.2-0.4,1.5-0.9l2-3l7.2,15H39.9z"></path></svg>