<svg xmlns="http://www.w3.org/2000/svg" xmlns:xlink="http://www.w3.org/1999/xlink" version="1.1" x="0px" y="0px" viewBox="0 0 512 512" enable-background="new 0 0 512 512" xml:space="preserve">
<linearGradient id="linear-gradient">
    <stop offset="0%" stop-color="#FF7F1E"/>
    <stop offset="100%" stop-color="#FFBB21"/>
  </linearGradient>
  <g><path style="fill:url(#linear-gradient)" d="M327.8,276c4.4-3.1,6.5-8.5,5.6-13.8l-10.9-63.5l46.1-44.9c3.8-3.7,5.2-9.4,3.6-14.5c-1.7-5.1-6.1-8.8-11.4-9.6l-63.7-9.3   l-28.5-57.7c-2.4-4.8-7.3-7.9-12.7-7.9c-5.4,0-10.3,3.1-12.7,7.9l-28.5,57.7l-63.7,9.3c-5.3,0.8-9.7,4.5-11.4,9.6   c-1.7,5.1-0.3,10.7,3.6,14.5l46.1,44.9l-10.9,63.5c-0.9,5.3,1.3,10.6,5.6,13.8c4.4,3.2,10.1,3.6,14.9,1.1l57-30l57,30   C315.1,278.2,322.2,280,327.8,276z M262.6,218.7c-6.6-2.2-6.6-2.2-13.1,0l-38.2,20.1l7.3-42.6c0.8-4.6-0.7-9.2-4.1-12.5l-30.9-30.2   l42.8-6.2c4.6-0.7,8.6-3.6,10.6-7.7l19.1-38.7l19.1,38.7c2.1,4.2,6,7.1,10.6,7.7l42.8,6.2l-30.9,30.2c-3.3,3.2-4.8,7.9-4.1,12.5   l7.3,42.6L262.6,218.7z"></path><path style="fill:url(#linear-gradient)" d="M509.3,317.8c-1.7-5.1-6.1-8.8-11.4-9.6l-63.7-9.3l-28.5-57.7c-2.4-4.8-7.3-7.9-12.7-7.9c-5.4,0-10.3,3.1-12.7,7.9   l-28.5,57.7l-63.7,9.3c-5.3,0.8-9.7,4.5-11.4,9.6c-1.7,5.1-0.3,10.7,3.6,14.5l46.1,44.9l-10.9,63.5c-0.9,5.3,1.3,10.6,5.6,13.8   c4.4,3.2,10.1,3.6,14.9,1.1l57-30l57,30c2.1,1.1,9.2,2.9,14.9-1.1c4.4-3.1,6.5-8.5,5.6-13.8l-10.9-63.5l46.1-44.9   C509.6,328.5,511,322.9,509.3,317.8z M434.6,362.1c-3.3,3.2-4.8,7.9-4.1,12.5l7.3,42.6l-38.2-20.1c-6.6-2.2-6.6-2.2-13.1,0   l-38.2,20.1l7.3-42.6c0.8-4.6-0.7-9.2-4.1-12.5L320.6,332l42.8-6.2c4.6-0.7,8.6-3.6,10.6-7.7l19.1-38.7l19.1,38.7   c2.1,4.2,6,7.1,10.6,7.7l42.8,6.2L434.6,362.1z"></path><path style="fill:url(#linear-gradient)" d="M223.8,308.2l-63.7-9.3l-28.5-57.7c-2.4-4.8-7.3-7.9-12.7-7.9c-5.4,0-10.3,3.1-12.7,7.9l-28.5,57.7l-63.7,9.3   c-5.3,0.8-9.7,4.5-11.4,9.6c-1.7,5.1-0.3,10.7,3.6,14.5l46.1,44.9l-10.9,63.5c-0.9,5.3,1.3,10.6,5.6,13.8   c4.4,3.2,10.1,3.6,14.9,1.1l57-30l57,30c2.1,1.1,9.2,2.9,14.9-1.1c4.4-3.1,6.5-8.5,5.6-13.8l-10.9-63.5l46.1-44.9   c3.8-3.7,5.2-9.4,3.6-14.5C233.5,312.7,229.1,308.9,223.8,308.2z M160.5,362.1c-3.3,3.2-4.8,7.9-4.1,12.5l7.3,42.6l-38.2-20.1   c-6.6-2.2-6.6-2.2-13.1,0l-38.2,20.1l7.3-42.6c0.8-4.6-0.7-9.2-4.1-12.5L46.4,332l42.8-6.2c4.6-0.7,8.6-3.6,10.6-7.7l19.1-38.7   l19.1,38.7c2.1,4.2,6,7.1,10.6,7.7l42.8,6.2L160.5,362.1z"></path></g></svg>