<svg xmlns="http://www.w3.org/2000/svg" xmlns:xlink="http://www.w3.org/1999/xlink" version="1.1" x="0px" y="0px" viewBox="0 0 512 512" enable-background="new 0 0 512 512" xml:space="preserve">
<linearGradient id="linear-gradient">
    <stop offset="0%" stop-color="#FF7F1E"/>
    <stop offset="100%" stop-color="#FFBB21"/>
  </linearGradient>
  <path style="fill:url(#linear-gradient)" d="M467.7,99.5h-38.3v-1.6c0-7.8-6.3-14.1-14.1-14.1c-7.8,0-14.1,6.3-14.1,14.1v1.6h-60.1V35.7c0-7.8-6.3-14.1-14.1-14.1H185  c-7.8,0-14.1,6.3-14.1,14.1v63.8h-60.1v-1.6c0-7.8-6.3-14.1-14.1-14.1c-7.8,0-14.1,6.3-14.1,14.1v1.6H44.3C21,99.5,2,118.5,2,141.8  v306.2c0,23.3,19,42.3,42.3,42.3h423.3c23.3,0,42.3-19,42.3-42.3V141.8C510,118.5,491,99.5,467.7,99.5z M199.1,49.8h113.8v49.7  H199.1V49.8z M481.8,448.1c0,7.8-6.3,14.1-14.1,14.1H44.3c-7.8,0-14.1-6.3-14.1-14.1V141.8c0-7.8,6.3-14.1,14.1-14.1h106  c5.8,36.5,25.7,73.7,44.7,102.4c-29.2,28-35.7,73.7-13.2,109.1l68.8,108.7c5.4,8.3,17.2,5.8,19.5,4.4l123-77.8  c6.6-4.2,8.5-12.9,4.4-19.5l-68.8-108.7c-39.7-57.7-98.8-37.6-110.3-32.2c-16.5-24.9-33.5-56.3-39.4-86.4h288.7  c7.8,0,14.1,6.3,14.1,14.1V448.1z M255.5,262.7c-0.3-0.3-8.9-9.8-20.4-25c6.4-2.3,42.9-17.7,69.6,23.6l61.2,96.8l-99.1,62.7  l-61.2-96.8c-14.4-22.7-11.1-51.5,6-70.6c12.4,16.4,22,27,23.1,28.2c2.8,3,13.7,6.3,19.9,0.9C260.6,277.6,260.8,268.5,255.5,262.7z"></path></svg>