<svg xmlns="http://www.w3.org/2000/svg" xmlns:xlink="http://www.w3.org/1999/xlink" version="1.1" x="0px" y="0px" viewBox="0 0 512 512" enable-background="new 0 0 512 512" xml:space="preserve">
<linearGradient id="linear-gradient">
    <stop offset="0%" stop-color="#FF7F1E"/>
    <stop offset="100%" stop-color="#FFBB21"/>
  </linearGradient>
  <g><path style="fill:url(#linear-gradient)" d="M197.4,249.8h117.2c7.8,0,14.1-6.3,14.1-14.1c0-7.8-6.3-14.1-14.1-14.1H197.4c-7.8,0-14.1,6.3-14.1,14.1   C183.3,243.5,189.6,249.8,197.4,249.8z"></path><path style="fill:url(#linear-gradient)" d="M197.4,303.1h117.2c7.8,0,14.1-6.3,14.1-14.1c0-7.8-6.3-14.1-14.1-14.1H197.4c-7.8,0-14.1,6.3-14.1,14.1   C183.3,296.8,189.6,303.1,197.4,303.1z"></path><path style="fill:url(#linear-gradient)" d="M197.4,356.4h117.2c7.8,0,14.1-6.3,14.1-14.1c0-7.8-6.3-14.1-14.1-14.1H197.4c-7.8,0-14.1,6.3-14.1,14.1   C183.3,350.1,189.6,356.4,197.4,356.4z"></path><path style="fill:url(#linear-gradient)" d="M426.1,481.8h-40.9V182.3c0-7.8-6.3-14.1-14.1-14.1h-32.6v-56.8c0-7.8-6.3-14.1-14.1-14.1h-54.2V16.1   C270.1,8.3,263.8,2,256,2c-7.8,0-14.1,6.3-14.1,14.1v81.2h-54.2c-7.8,0-14.1,6.3-14.1,14.1v56.8h-32.6c-7.8,0-14.1,6.3-14.1,14.1   v299.4H85.9c-7.8,0-14.1,6.3-14.1,14.1c0,7.8,6.3,14.1,14.1,14.1h340.2c7.8,0,14.1-6.3,14.1-14.1   C440.2,488.1,433.9,481.8,426.1,481.8z M201.8,125.5h108.5v42.7H201.8V125.5z M277.6,481.8h-43.2v-57.6h43.2V481.8z M357,481.8   h-51.1v-71.7c0-7.8-6.3-14.1-14.1-14.1h-71.4c-7.8,0-14.1,6.3-14.1,14.1v71.7H155V196.5H357V481.8z"></path></g></svg>