<svg xmlns="http://www.w3.org/2000/svg" xmlns:xlink="http://www.w3.org/1999/xlink" version="1.1" x="0px" y="0px" viewBox="0 0 512 512" enable-background="new 0 0 512 512" xml:space="preserve">
<linearGradient id="linear-gradient">
    <stop offset="0%" stop-color="#FF7F1E"/>
    <stop offset="100%" stop-color="#FFBB21"/>
  </linearGradient>
	<path style="fill:url(#linear-gradient)" d="M495.9,431.9H249.7l71.7-271.2l170.9,45.1c1.2,0.3,8.7,1.2,13.3-3.4c3.5-3.4,5.1-8.3,4.1-13.1  c-13.3-65.4-104.1-168.5-162-183.6c-70.1-18.3-191.5,33.9-231.6,79.8c-3.2,3.7-4.3,8.7-2.9,13.4c1.4,4.7,5.2,8.2,9.9,9.5l170.9,45.1  l-73.6,278.4H99.9l-73.9-73.8c-5.5-5.5-14.4-5.5-20,0c-5.5,5.5-5.5,14.4,0,19.9l78,77.9c2.6,2.6,6.2,4.1,10,4.1h9l-15.8,29.1  c-3.7,6.8-1.2,15.4,5.7,19.1c6.8,3.7,15.4,1.2,19.1-5.7l23.1-42.6h77.9l-8.5,32.3c-2,7.5,2.5,15.2,10,17.2c1.2,0.3,2.4,0.5,3.6,0.5  c6.2,0,12-4.2,13.6-10.5l10.4-39.5h192.8l23.1,42.6c3.7,6.8,12.3,9.4,19.1,5.7c6.8-3.7,9.4-12.3,5.7-19.1l-15.8-29.1h28.7  c7.8,0,14.1-6.3,14.1-14.1S503.7,431.9,495.9,431.9z M340.5,33c41.9,11.6,109.7,83.7,133.9,138.9L155.5,87.8  C196.1,57.5,289.1,18.7,340.5,33z"></path></svg>