<svg xmlns="http://www.w3.org/2000/svg" xmlns:xlink="http://www.w3.org/1999/xlink" version="1.1" x="0px" y="0px" viewBox="0 0 512 512" enable-background="new 0 0 512 512" xml:space="preserve">
<linearGradient id="linear-gradient">
    <stop offset="0%" stop-color="#FF7F1E"/>
    <stop offset="100%" stop-color="#FFBB21"/>
  </linearGradient>
	<path style="fill:url(#linear-gradient)" d="M505.8,287.2c-7.2-7.2-52.6-52.6-52.6-52.6c-2.6-2.6-6.2-4.1-10-4.1H270.1V98.7c20.4-6.1,35.3-25,35.3-47.3  C305.4,24.2,283.2,2,256,2c-27.2,0-49.4,22.2-49.4,49.4c0,22.3,14.9,41.2,35.3,47.3v26.5H68.8c-3.8,0-7.3,1.5-10,4.1  c-20.5,20.6-32,32.1-52.6,52.6c-2.7,2.7-4.2,6.3-4.2,10c0,3.8,1.5,7.4,4.2,10c7.9,7.8,52.6,52.6,52.6,52.6c2.6,2.6,6.2,4.1,10,4.1  h173.1V421h-72.1c-5.2,0-10,2.9-12.5,7.5l-32,60.8c-2.3,4.4-2.9,20.7,12.5,20.7c0,0,237,0,237.1,0c16.8,0,13.1-20,11.5-22.3  l-31.2-59.2c-2.4-4.6-7.2-7.5-12.5-7.5h-72.6v-57h173.1c3.7,0,7.3-1.5,10-4.1c20.5-20.6,32-32.1,52.6-52.6c2.7-2.6,4.2-6.2,4.1-10  C510,293.5,508.5,289.9,505.8,287.2z M351.4,481.8H161.2l17.2-32.6h155.9L351.4,481.8z M234.8,51.4c0-11.7,9.5-21.2,21.2-21.2  c11.7,0,21.2,9.5,21.2,21.2s-9.5,21.2-21.2,21.2C244.3,72.6,234.8,63.1,234.8,51.4z M74.6,230.5c0,0-28.9-28.9-38.5-38.5  c13.6-13.6,23.9-23.8,38.5-38.5h167.3v77.1H74.6z M437.4,335.8H270.1v-77.1h167.3c0,0,30,30,38.5,38.5  C462.3,310.8,452.1,321.1,437.4,335.8z"></path></svg>